<svg width="274" height="145" viewBox="0 0 274 145" fill="none" xmlns="http://www.w3.org/2000/svg">
<path d="M110.176 0.8237C90.0354 0.8237 70.0166 9.11712 55.7747 23.3591C46.8017 32.3321 40.1967 43.5975 36.5338 55.7414C27.7297 57.4033 19.4147 61.7004 13.0745 68.0405C4.81072 76.3042 6.10352e-05 87.9157 6.10352e-05 99.6026C6.10352e-05 111.29 4.81072 122.905 13.0745 131.169C21.3384 139.432 32.9537 144.243 44.6405 144.243H244.573C252.032 144.243 259.448 141.174 264.723 135.899C269.997 130.624 273.067 123.209 273.067 115.749C273.067 108.289 269.997 100.878 264.723 95.6032C259.48 90.3607 252.123 87.3002 244.71 87.2626C243.263 73.747 237.14 60.7378 227.521 51.1185C216.444 40.0415 200.876 33.5917 185.21 33.5917C181.407 33.5917 177.612 33.9817 173.883 34.7159C171.155 30.6439 168.047 26.8277 164.578 23.3591C150.336 9.11712 130.318 0.8237 110.176 0.8237Z" fill="#E2E2E2"/>
</svg>
